<svg width="110" height="34" viewBox="0 0 110 34" fill="none" xmlns="http://www.w3.org/2000/svg">
<path d="M38.1027 19.8004C38.1027 18.6988 38.3076 17.7318 38.7175 16.8992C39.1402 16.0666 39.7102 15.4261 40.4275 14.9778C41.1448 14.5295 41.9454 14.3054 42.8292 14.3054C43.5849 14.3054 44.2446 14.4591 44.8082 14.7665C45.3846 15.0739 45.8265 15.4774 46.1339 15.9769V14.4591H49.4194V25.1802H46.1339V23.6623C45.8137 24.1619 45.3654 24.5653 44.789 24.8728C44.2254 25.1802 43.5657 25.3339 42.81 25.3339C41.939 25.3339 41.1448 25.1097 40.4275 24.6614C39.7102 24.2003 39.1402 23.5534 38.7175 22.7209C38.3076 21.8755 38.1027 20.902 38.1027 19.8004ZM46.1339 19.8196C46.1339 18.9998 45.9033 18.353 45.4422 17.8791C44.9939 17.4051 44.4431 17.1682 43.7899 17.1682C43.1366 17.1682 42.5794 17.4051 42.1183 17.8791C41.67 18.3402 41.4458 18.9806 41.4458 19.8004C41.4458 20.6202 41.67 21.2734 42.1183 21.7602C42.5794 22.2341 43.1366 22.4711 43.7899 22.4711C44.4431 22.4711 44.9939 22.2341 45.4422 21.7602C45.9033 21.2862 46.1339 20.6394 46.1339 19.8196ZM55.0818 16.2459C55.4661 15.6567 55.9464 15.1956 56.5228 14.8626C57.0992 14.5167 57.7397 14.3438 58.4442 14.3438V17.8214H57.5411C56.7214 17.8214 56.1065 18.0007 55.6966 18.3594C55.2868 18.7052 55.0818 19.3201 55.0818 20.2039V25.1802H51.7963V14.4591H55.0818V16.2459ZM59.3613 19.8004C59.3613 18.6988 59.5663 17.7318 59.9761 16.8992C60.3988 16.0666 60.9688 15.4261 61.6861 14.9778C62.4034 14.5295 63.204 14.3054 64.0878 14.3054C64.7923 14.3054 65.4328 14.4527 66.0092 14.7473C66.5984 15.0419 67.0595 15.439 67.3925 15.9385V10.9622H70.678V25.1802H67.3925V23.6431C67.0851 24.1555 66.6432 24.5653 66.0668 24.8728C65.5032 25.1802 64.8435 25.3339 64.0878 25.3339C63.204 25.3339 62.4034 25.1097 61.6861 24.6614C60.9688 24.2003 60.3988 23.5534 59.9761 22.7209C59.5663 21.8755 59.3613 20.902 59.3613 19.8004ZM67.3925 19.8196C67.3925 18.9998 67.162 18.353 66.7008 17.8791C66.2525 17.4051 65.7017 17.1682 65.0485 17.1682C64.3952 17.1682 63.838 17.4051 63.3769 17.8791C62.9286 18.3402 62.7044 18.9806 62.7044 19.8004C62.7044 20.6202 62.9286 21.2734 63.3769 21.7602C63.838 22.2341 64.3952 22.4711 65.0485 22.4711C65.7017 22.4711 66.2525 22.2341 66.7008 21.7602C67.162 21.2862 67.3925 20.6394 67.3925 19.8196Z" fill="#F6F6F6"/>
<path d="M84.3368 10.7689L79.3866 20.3434V25.0696H75.9031V20.3434L70.9529 10.7689H74.9049L77.6754 16.7581L80.4256 10.7689H84.3368ZM89.2239 13.5598V16.4525H93.8889V19.1415H89.2239V22.2787H94.5V25.0696H85.7404V10.7689H94.5V13.5598H89.2239ZM101.936 25.2122C100.89 25.2122 99.9531 25.0424 99.1246 24.7029C98.2962 24.3634 97.6307 23.8609 97.1283 23.1954C96.6393 22.53 96.3813 21.7287 96.3541 20.7916H100.062C100.116 21.3213 100.299 21.7287 100.612 22.0139C100.924 22.2855 101.332 22.4213 101.834 22.4213C102.35 22.4213 102.758 22.3059 103.056 22.075C103.355 21.8305 103.504 21.4978 103.504 21.0768C103.504 20.7237 103.382 20.4317 103.138 20.2008C102.907 19.97 102.615 19.7798 102.262 19.6304C101.922 19.4811 101.433 19.3113 100.795 19.1212C99.8716 18.836 99.1179 18.5508 98.5339 18.2656C97.9499 17.9804 97.4474 17.5594 97.0264 17.0025C96.6054 16.4457 96.3949 15.7192 96.3949 14.8228C96.3949 13.4919 96.877 12.453 97.8413 11.706C98.8055 10.9455 100.062 10.5652 101.61 10.5652C103.185 10.5652 104.455 10.9455 105.419 11.706C106.384 12.453 106.9 13.4987 106.968 14.8432H103.199C103.172 14.3814 103.002 14.0216 102.69 13.7635C102.377 13.4919 101.977 13.3561 101.488 13.3561C101.067 13.3561 100.727 13.4715 100.469 13.7024C100.211 13.9197 100.082 14.2388 100.082 14.6599C100.082 15.1216 100.299 15.4815 100.734 15.7395C101.169 15.9976 101.848 16.276 102.771 16.5748C103.695 16.8871 104.442 17.1859 105.012 17.4711C105.596 17.7563 106.098 18.1705 106.519 18.7137C106.94 19.257 107.151 19.9564 107.151 20.812C107.151 21.6268 106.94 22.367 106.519 23.0325C106.112 23.6979 105.514 24.2276 104.727 24.6214C103.939 25.0153 103.009 25.2122 101.936 25.2122Z" fill="#D5F361"/>
<path d="M18.4326 4.24402L22.0002 6.53178V13.7575L18.4326 11.4698V4.24402Z" fill="#D5F361"/>
<path d="M18.4324 15.5413V23.632L8.48202 30.8026L2.37842 26.7155L18.4324 15.5413Z" fill="#D5F361"/>
<path d="M0 7.6134L6.93693 12.218V29.6134L0 25.0087V7.6134Z" fill="#D5F361"/>
<path d="M8.3252 11.291L6.93652 12.2715L0 7.61328L1.25586 6.79199L8.3252 11.291ZM18.4609 4.13965L10.7295 9.59375L3.75781 5.15723L11.6553 0L18.4609 4.13965Z" fill="#D5F361"/>
<path d="M37.6218 11.1272C37.5673 11.4681 37.5378 11.8178 37.5378 12.1741V14.9788H31.9158C30.1431 14.9788 28.7058 16.4161 28.7058 18.1887C28.7061 19.9612 30.1433 21.3987 31.9158 21.3987H37.5378V25.2502H31.9158L31.5525 25.2405C27.9418 25.0576 25.0462 22.1626 24.863 18.552L24.8542 18.1887C24.8542 14.4106 27.8214 11.325 31.5525 11.136L31.9158 11.1272H37.6218Z" fill="#F6F6F6"/>
<path d="M106.438 10.0813L108.203 8.7218L109.637 9.23161L107.211 10.5061L106.438 10.0813Z" fill="#D5F361"/>
<path d="M105.857 9.00427L107.321 7.27745L108.865 7.19256L106.776 9.188L105.857 9.00427Z" fill="#D5F361"/>
</svg>
